<mxfile host="65bd71144e">
    <diagram id="eN1HLBj8l9-sbqCyqx8w" name="Page-1">
        <mxGraphModel dx="2050" dy="1317" grid="0" gridSize="10" guides="1" tooltips="1" connect="1" arrows="1" fold="1" page="1" pageScale="1" pageWidth="1100" pageHeight="850" background="#FFB5D8" math="0" shadow="1">
            <root>
                <mxCell id="0"/>
                <mxCell id="1" parent="0"/>
                <mxCell id="32" value="" style="endArrow=diamondThin;endFill=0;endSize=24;html=1;shadow=1;strokeWidth=2;labelBackgroundColor=none;labelBorderColor=none;strokeColor=#33001A;" parent="1" edge="1">
                    <mxGeometry width="160" relative="1" as="geometry">
                        <mxPoint x="40" y="350" as="sourcePoint"/>
                        <mxPoint x="200" y="350" as="targetPoint"/>
                    </mxGeometry>
                </mxCell>
                <mxCell id="33" value="" style="endArrow=diamondThin;endFill=1;endSize=24;html=1;shadow=1;strokeWidth=2;labelBackgroundColor=none;labelBorderColor=none;strokeColor=#33001A;" parent="1" edge="1">
                    <mxGeometry width="160" relative="1" as="geometry">
                        <mxPoint x="450" y="350" as="sourcePoint"/>
                        <mxPoint x="610" y="350" as="targetPoint"/>
                    </mxGeometry>
                </mxCell>
                <mxCell id="34" value="" style="endArrow=open;endFill=1;endSize=12;html=1;shadow=1;strokeWidth=2;labelBackgroundColor=none;labelBorderColor=none;strokeColor=#33001A;" parent="1" edge="1">
                    <mxGeometry width="160" relative="1" as="geometry">
                        <mxPoint x="440" y="50" as="sourcePoint"/>
                        <mxPoint x="610" y="50" as="targetPoint"/>
                    </mxGeometry>
                </mxCell>
                <mxCell id="122" value="" style="edgeStyle=none;html=1;endArrow=block;endFill=0;endSize=12;verticalAlign=bottom;shadow=1;strokeWidth=2;labelBackgroundColor=none;labelBorderColor=none;strokeColor=#33001A;" parent="1" edge="1">
                    <mxGeometry width="160" relative="1" as="geometry">
                        <mxPoint x="40" y="50" as="sourcePoint"/>
                        <mxPoint x="200" y="50" as="targetPoint"/>
                    </mxGeometry>
                </mxCell>
                <mxCell id="123" value="" style="edgeStyle=none;html=1;endArrow=none;verticalAlign=bottom;shadow=1;strokeWidth=2;labelBackgroundColor=none;labelBorderColor=none;strokeColor=#33001A;" parent="1" edge="1">
                    <mxGeometry width="160" relative="1" as="geometry">
                        <mxPoint x="780" y="350" as="sourcePoint"/>
                        <mxPoint x="980" y="350" as="targetPoint"/>
                    </mxGeometry>
                </mxCell>
                <mxCell id="125" value="" style="edgeStyle=none;html=1;startArrow=open;endArrow=none;startSize=12;verticalAlign=bottom;dashed=1;labelBackgroundColor=none;shadow=1;strokeWidth=2;labelBorderColor=none;strokeColor=#33001A;" parent="1" edge="1">
                    <mxGeometry width="160" relative="1" as="geometry">
                        <mxPoint x="960" y="50" as="sourcePoint"/>
                        <mxPoint x="800" y="50" as="targetPoint"/>
                    </mxGeometry>
                </mxCell>
                <mxCell id="131" value="Inheritance: Is a Kind of ..." style="text;html=1;align=center;verticalAlign=middle;whiteSpace=wrap;fillColor=#FFB5D8;fontColor=#0000FF;labelBorderColor=none;labelBackgroundColor=none;shadow=1;strokeWidth=2;strokeColor=#33001A;" parent="1" vertex="1">
                    <mxGeometry x="40" y="80" width="160" height="30" as="geometry"/>
                </mxCell>
                <mxCell id="132" value="Aggregation: ... Is a Part of ... ; ... Uses ... ; CAN live without the parent class." style="text;html=1;align=center;verticalAlign=middle;whiteSpace=wrap;fillColor=#FFB5D8;fontColor=#0000FF;labelBorderColor=none;labelBackgroundColor=none;shadow=1;strokeWidth=2;strokeColor=#33001A;" parent="1" vertex="1">
                    <mxGeometry x="10" y="370" width="220" height="55" as="geometry"/>
                </mxCell>
                <mxCell id="133" value="Association: NOT a Kind of; NOT Part of" style="text;html=1;align=center;verticalAlign=middle;whiteSpace=wrap;fillColor=#FFB5D8;fontColor=#0000FF;labelBorderColor=none;labelBackgroundColor=none;shadow=1;strokeWidth=2;strokeColor=#33001A;" parent="1" vertex="1">
                    <mxGeometry x="442.5" y="75" width="155" height="40" as="geometry"/>
                </mxCell>
                <mxCell id="134" value="Composition: ... Is a Part of ... ; ... Uses ... ; CANNOT live without the parent class." style="text;html=1;align=center;verticalAlign=middle;whiteSpace=wrap;fillColor=#FFB5D8;fontColor=#0000FF;labelBorderColor=none;labelBackgroundColor=none;shadow=1;strokeWidth=2;strokeColor=#33001A;" parent="1" vertex="1">
                    <mxGeometry x="395" y="370" width="250" height="55" as="geometry"/>
                </mxCell>
                <mxCell id="135" value="Dependency: USES" style="text;html=1;align=center;verticalAlign=middle;whiteSpace=wrap;fillColor=#FFB5D8;fontColor=#0000FF;labelBorderColor=none;labelBackgroundColor=none;shadow=1;strokeWidth=2;strokeColor=#33001A;" parent="1" vertex="1">
                    <mxGeometry x="810" y="80" width="130" height="30" as="geometry"/>
                </mxCell>
                <mxCell id="137" value="" style="endArrow=none;dashed=1;html=1;shadow=1;labelBackgroundColor=none;fontColor=#0000FF;strokeColor=#33001A;strokeWidth=2;" parent="1" edge="1">
                    <mxGeometry width="50" height="50" relative="1" as="geometry">
                        <mxPoint x="780" y="410" as="sourcePoint"/>
                        <mxPoint x="980" y="410" as="targetPoint"/>
                    </mxGeometry>
                </mxCell>
                <mxCell id="165" value="" style="rhombus;shadow=1;glass=0;labelBackgroundColor=none;fontColor=#0000FF;strokeColor=#33001A;strokeWidth=2;fillColor=#FFB5D8;gradientColor=none;" parent="1" vertex="1">
                    <mxGeometry x="1010" y="755" width="55" height="55" as="geometry"/>
                </mxCell>
                <mxCell id="166" value="" style="ellipse;shadow=1;glass=0;labelBackgroundColor=none;fontColor=#0000FF;labelBorderColor=none;fillColor=#FFB5D8;strokeColor=#33001A;strokeWidth=2;" parent="1" vertex="1">
                    <mxGeometry x="1010" y="666.5" width="55" height="55" as="geometry"/>
                </mxCell>
                <mxCell id="167" value="" style="ellipse;html=1;shape=endState;shadow=1;glass=0;labelBackgroundColor=none;fontColor=#0000FF;fillColor=#FFB5D8;strokeColor=#33001A;strokeWidth=2;" parent="1" vertex="1">
                    <mxGeometry x="930" y="666.5" width="55" height="55" as="geometry"/>
                </mxCell>
                <mxCell id="171" value="User" style="shape=umlActor;verticalLabelPosition=bottom;verticalAlign=top;html=1;shadow=1;glass=0;labelBackgroundColor=none;fontColor=#0000FF;strokeColor=#33001A;strokeWidth=2;fillColor=#FFB5D8;gradientColor=none;" parent="1" vertex="1">
                    <mxGeometry x="850" y="750" width="30" height="60" as="geometry"/>
                </mxCell>
                <mxCell id="179" value="Classname" style="swimlane;fontStyle=1;align=center;verticalAlign=top;childLayout=stackLayout;horizontal=1;startSize=29;horizontalStack=0;resizeParent=1;resizeParentMax=0;resizeLast=0;collapsible=1;marginBottom=0;shadow=1;glass=0;labelBackgroundColor=none;fontColor=#0000FF;strokeColor=#33001A;strokeWidth=2;fillColor=#FFB5D8;gradientColor=none;" parent="1" vertex="1">
                    <mxGeometry x="16" y="544" width="216" height="177" as="geometry">
                        <mxRectangle x="16" y="657" width="100" height="26" as="alternateBounds"/>
                    </mxGeometry>
                </mxCell>
                <mxCell id="180" value="+ field: Type [Attributes]&#10;   {Knows}" style="text;fillColor=none;align=left;verticalAlign=top;spacingLeft=4;spacingRight=4;overflow=hidden;rotatable=0;points=[[0,0.5],[1,0.5]];portConstraint=eastwest;fontColor=#0000FF;strokeColor=#33001A;strokeWidth=2;" parent="179" vertex="1">
                    <mxGeometry y="29" width="216" height="73" as="geometry"/>
                </mxCell>
                <mxCell id="182" value="+ method(): Type [Operations]&#10;   {Does}" style="text;fillColor=none;align=left;verticalAlign=top;spacingLeft=4;spacingRight=4;overflow=hidden;rotatable=0;points=[[0,0.5],[1,0.5]];portConstraint=eastwest;fontColor=#0000FF;strokeColor=#33001A;strokeWidth=2;" parent="179" vertex="1">
                    <mxGeometry y="102" width="216" height="75" as="geometry"/>
                </mxCell>
                <mxCell id="183" value="[ 0...* ]" style="text;html=1;strokeColor=none;fillColor=none;align=center;verticalAlign=middle;whiteSpace=wrap;rounded=0;shadow=1;glass=0;labelBackgroundColor=none;fontColor=#0000FF;" parent="1" vertex="1">
                    <mxGeometry x="410" y="590" width="40" height="20" as="geometry"/>
                </mxCell>
                <mxCell id="184" value="[ 0...1 ]" style="text;html=1;strokeColor=none;fillColor=none;align=center;verticalAlign=middle;whiteSpace=wrap;rounded=0;shadow=1;glass=0;labelBackgroundColor=none;fontColor=#0000FF;" parent="1" vertex="1">
                    <mxGeometry x="410" y="630" width="40" height="20" as="geometry"/>
                </mxCell>
                <mxCell id="185" value="[ 1...* ]" style="text;html=1;strokeColor=none;fillColor=none;align=center;verticalAlign=middle;whiteSpace=wrap;rounded=0;shadow=1;glass=0;labelBackgroundColor=none;fontColor=#0000FF;" parent="1" vertex="1">
                    <mxGeometry x="470" y="590" width="40" height="20" as="geometry"/>
                </mxCell>
                <mxCell id="186" value="[ 1 ]" style="text;html=1;strokeColor=none;fillColor=none;align=center;verticalAlign=middle;whiteSpace=wrap;rounded=0;shadow=1;glass=0;labelBackgroundColor=none;fontColor=#0000FF;" parent="1" vertex="1">
                    <mxGeometry x="470" y="630" width="40" height="20" as="geometry"/>
                </mxCell>
                <mxCell id="187" value="[ Role ]" style="text;html=1;strokeColor=none;fillColor=none;align=center;verticalAlign=middle;whiteSpace=wrap;rounded=0;shadow=1;glass=0;labelBackgroundColor=none;fontColor=#0000FF;" parent="1" vertex="1">
                    <mxGeometry x="530" y="590" width="50" height="20" as="geometry"/>
                </mxCell>
                <mxCell id="189" value="Admin" style="shape=umlActor;verticalLabelPosition=bottom;verticalAlign=top;html=1;shadow=1;glass=0;labelBackgroundColor=none;fontColor=#0000FF;strokeColor=#33001A;strokeWidth=2;fillColor=#FFB5D8;gradientColor=none;" parent="1" vertex="1">
                    <mxGeometry x="904" y="750" width="30" height="60" as="geometry"/>
                </mxCell>
                <mxCell id="190" value="&lt;br&gt;&lt;br&gt;User" style="shape=actor;whiteSpace=wrap;html=1;shadow=1;glass=0;labelBackgroundColor=none;fontColor=#0000FF;strokeColor=#33001A;strokeWidth=2;fillColor=#FFB5D8;gradientColor=none;" parent="1" vertex="1">
                    <mxGeometry x="703" y="766" width="40" height="60" as="geometry"/>
                </mxCell>
                <mxCell id="191" value="&lt;br&gt;&lt;br&gt;Admin" style="shape=actor;whiteSpace=wrap;html=1;shadow=1;glass=0;labelBackgroundColor=none;fontColor=#0000FF;strokeColor=#33001A;strokeWidth=2;fillColor=#FFB5D8;gradientColor=none;" parent="1" vertex="1">
                    <mxGeometry x="760" y="766" width="40" height="60" as="geometry"/>
                </mxCell>
                <mxCell id="193" value="&lt;font style=&quot;font-size: 42px&quot;&gt;UML Starter Pack&lt;/font&gt;" style="text;html=1;strokeColor=none;fillColor=none;align=center;verticalAlign=middle;whiteSpace=wrap;rounded=0;shadow=1;glass=0;labelBackgroundColor=none;fontColor=#0000FF;" parent="1" vertex="1">
                    <mxGeometry y="746.5" width="453" height="99" as="geometry"/>
                </mxCell>
            </root>
        </mxGraphModel>
    </diagram>
</mxfile>